<svg width="1200" height="420" viewBox="0 0 1200 420" fill="none" xmlns="http://www.w3.org/2000/svg">
  <defs>
    <linearGradient id="bg" x1="0" y1="0" x2="1200" y2="420" gradientUnits="userSpaceOnUse">
      <stop stop-color="#07111F" />
      <stop offset="0.45" stop-color="#0B3A53" />
      <stop offset="1" stop-color="#0B7285" />
    </linearGradient>
    <linearGradient id="accent" x1="184" y1="88" x2="1032" y2="344" gradientUnits="userSpaceOnUse">
      <stop stop-color="#F59F00" stop-opacity="0.95" />
      <stop offset="1" stop-color="#FFD166" stop-opacity="0.95" />
    </linearGradient>
    <filter id="glow" x="0" y="0" width="1200" height="420" filterUnits="userSpaceOnUse">
      <feGaussianBlur stdDeviation="32" result="blur" />
      <feColorMatrix in="blur" type="matrix" values="1 0 0 0 0.96  0 1 0 0 0.63  0 0 1 0 0  0 0 0 0.35 0" />
    </filter>
  </defs>
  <rect width="1200" height="420" rx="36" fill="url(#bg)" />
  <circle cx="950" cy="90" r="120" fill="#F59F00" fill-opacity="0.16" filter="url(#glow)" />
  <circle cx="230" cy="330" r="160" fill="#4D96FF" fill-opacity="0.12" filter="url(#glow)" />
  <path d="M145 300C310 195 469 157 618 181C790 209 923 277 1060 170" stroke="url(#accent)" stroke-width="7" stroke-linecap="round" opacity="0.9" />
  <path d="M140 314C298 214 453 183 610 206C780 232 926 298 1068 192" stroke="#FFFFFF" stroke-opacity="0.12" stroke-width="1.5" />
  <text x="84" y="160" fill="#F8FAFC" font-family="Segoe UI, Arial, sans-serif" font-size="34" font-weight="700" letter-spacing="1.5">SAMUEL EMMANUEL</text>
  <text x="84" y="228" fill="#FFFFFF" font-family="Segoe UI, Arial, sans-serif" font-size="58" font-weight="800">AI native full-stack engineer</text>
  <text x="84" y="282" fill="#D7E7EE" font-family="Segoe UI, Arial, sans-serif" font-size="24" font-weight="500">Go • JavaScript • Product-minded builds • Open source learning</text>
  <g transform="translate(84 320)">
    <rect width="178" height="42" rx="21" fill="#F59F00" fill-opacity="0.95" />
    <text x="89" y="27" text-anchor="middle" fill="#08111B" font-family="Segoe UI, Arial, sans-serif" font-size="18" font-weight="700">BUILD FAST</text>
  </g>
  <g transform="translate(276 320)">
    <rect width="212" height="42" rx="21" fill="#FFFFFF" fill-opacity="0.10" stroke="#FFFFFF" stroke-opacity="0.16" />
    <text x="106" y="27" text-anchor="middle" fill="#F8FAFC" font-family="Segoe UI, Arial, sans-serif" font-size="18" font-weight="700">LEARN BY SHIP</text>
  </g>
</svg>
